<svg width="144" height="84" viewBox="0 0 144 84" fill="none" xmlns="http://www.w3.org/2000/svg">
<path id="Vector" fill-rule="evenodd" clip-rule="evenodd" d="M142.674 59.6704C141.698 58.7104 140.146 58.7252 139.178 59.6879C127.575 70.848 115.358 76.5247 102.901 76.6669C90.7719 76.8038 78.5179 71.5418 66.4954 61.116C63.823 58.8403 59.6922 54.1022 56.0585 48.5079C59.1074 44.1224 61.1392 38.9289 62.1423 33.9253C63.622 26.5355 62.5446 19.7407 60.106 16.3754C58.7547 14.512 57.0123 13.37 54.975 12.894C52.3673 12.2884 48.824 12.8287 44.7572 16.2781C39.1464 21.0596 37.7826 27.887 39.4588 35.4008C40.3441 39.3508 42.1314 43.4959 44.3578 47.4793C41.7816 49.5358 38.5765 50.7254 34.6759 50.2971C26.4192 49.4465 20.2283 42.6666 15.8248 34.6896C12.0058 27.7888 7.405 17.5942 8.62117 9.49358C9.0329 6.74077 10.2372 4.37487 7.96523 2.12504C4.48685 -1.35587 1.29833 2.24743 0.727506 6.02838C-0.49448 14.1507 2.40065 23.9348 5.25796 31.4276C10.5018 45.2163 20.3423 57.618 33.6295 59.3278C39.8586 60.1007 45.1442 58.4443 49.4256 55.3666C53.4894 61.0062 57.8723 65.6722 60.7481 68.014C74.9775 79.3687 89.2982 84.6492 103.154 83.846C116.996 83.0507 130.421 76.2545 142.692 63.1667C143.652 62.1902 143.651 60.6304 142.674 59.6704ZM50.3796 37.5589C49.5155 35.2673 48.9316 33.0159 48.7604 30.875C48.5471 28.1526 49.0723 25.628 51.1941 23.8339C51.5536 23.5345 51.9915 23.1165 52.351 22.8171C52.6215 23.7625 53.0893 25.622 53.0961 27.1601C53.0956 30.5934 52.3151 34.679 50.7486 38.4841C50.6012 38.1653 50.4835 37.8661 50.3796 37.5589Z" fill="black" fill-opacity="0.4"/>
</svg>
