<svg width="200" height="169" viewBox="0 0 200 169" fill="none" xmlns="http://www.w3.org/2000/svg">
<path d="M154.492 72.7539C157.161 77.4414 159.147 82.3242 160.449 87.4023C161.751 92.4805 162.435 97.7214 162.5 103.125V113.184L100 144.531L37.5 113.184C37.5 109.277 37.5326 105.632 37.5977 102.246C37.6628 98.8607 37.9557 95.5729 38.4766 92.3828C38.9974 89.1927 39.7786 86.0026 40.8203 82.8125C41.862 79.6224 43.4245 76.2695 45.5078 72.7539L25 62.5V119.824C26.888 120.475 28.5807 121.387 30.0781 122.559C31.5755 123.73 32.9102 125.098 34.082 126.66C35.2539 128.223 36.1003 129.915 36.6211 131.738C37.1419 133.561 37.4349 135.482 37.5 137.5V168.75H0V137.5C0 135.547 0.292969 133.659 0.878906 131.836C1.46484 130.013 2.3112 128.288 3.41797 126.66C4.52474 125.033 5.82682 123.665 7.32422 122.559C8.82161 121.452 10.5469 120.54 12.5 119.824V56.25L0 50L100 0L200 50L154.492 72.7539ZM25 137.5C25 135.807 24.3815 134.342 23.1445 133.105C21.9076 131.868 20.4427 131.25 18.75 131.25C17.0573 131.25 15.5924 131.868 14.3555 133.105C13.1185 134.342 12.5 135.807 12.5 137.5V156.25H25V137.5ZM27.9297 50L100 86.0352L172.07 50L100 13.9648L27.9297 50ZM150 105.469C150 100.456 149.512 95.8008 148.535 91.5039C147.559 87.207 145.833 82.8125 143.359 78.3203L100 100L56.6406 78.3203C54.4922 82.0964 52.8646 86.0677 51.7578 90.2344C50.651 94.401 50.0651 98.6979 50 103.125V105.469L100 130.469L150 105.469Z" fill="black" fill-opacity="0.37"/>
</svg>
