<svg width="238" height="238" viewBox="0 0 238 238" fill="none" xmlns="http://www.w3.org/2000/svg">
<g id="Frame" clip-path="url(#clip0_31_173)">
<path id="Vector" d="M192.383 192.244L168.128 154.586L146.447 139.594C156.816 130.036 163.976 117.505 166.944 103.718C174.966 66.6677 151.349 29.9993 114.298 21.978C77.2473 13.9567 40.5789 37.5737 32.5576 74.6243C24.5363 111.675 48.1533 148.343 85.2039 156.365C99.1035 159.39 113.601 158.006 126.676 152.403L131.347 178.274L155.6 215.933C157.155 218.349 159.171 220.434 161.532 222.07C163.894 223.706 166.554 224.861 169.362 225.469C172.169 226.077 175.069 226.126 177.896 225.613C180.723 225.1 183.42 224.036 185.836 222.48C188.251 220.925 190.336 218.909 191.972 216.548C193.608 214.186 194.763 211.526 195.371 208.718C195.979 205.911 196.028 203.011 195.515 200.184C195.002 197.357 193.938 194.66 192.383 192.244ZM44.7746 77.2692C51.3373 46.9559 81.3397 27.6323 111.653 34.195C141.966 40.7576 161.29 70.7601 154.727 101.073C148.165 131.387 118.162 150.71 87.8488 144.148C57.5355 137.585 38.2119 107.583 44.7746 77.2692ZM179.068 211.971C176.976 213.314 174.438 213.773 172.008 213.247C169.579 212.721 167.458 211.253 166.109 209.165L143.205 173.603L138.863 149.547L158.969 163.45L181.874 199.013C183.217 201.104 183.676 203.643 183.15 206.072C182.624 208.501 181.156 210.622 179.068 211.971Z" fill="black" fill-opacity="0.4"/>
</g>
<defs>
<clipPath id="clip0_31_173">
<rect width="200" height="200" fill="white" transform="translate(42.3186) rotate(12.2157)"/>
</clipPath>
</defs>
</svg>
